<svg width="34" height="34" viewBox="0 0 34 34" fill="none" xmlns="http://www.w3.org/2000/svg">
<path d="M17 0.199951C7.72221 0.199951 0.200012 7.72215 0.200012 17C0.200012 24.8722 5.62081 31.4592 12.9288 33.2819C12.8504 33.0551 12.8 32.792 12.8 32.4658V29.5944C12.1182 29.5944 10.9758 29.5944 10.6888 29.5944C9.53941 29.5944 8.51741 29.1001 8.02181 28.1817C7.47161 27.1611 7.37641 25.6002 6.01281 24.6454C5.60821 24.3276 5.91621 23.965 6.38241 24.014C7.24341 24.2576 7.95741 24.8484 8.62941 25.7248C9.29861 26.6026 9.61361 26.8013 10.8638 26.8013C11.47 26.8013 12.3772 26.7663 13.2312 26.632C13.6904 25.4657 14.4842 24.392 15.4544 23.8851C9.86001 23.3097 7.19021 20.5266 7.19021 16.7479C7.19021 15.1212 7.88321 13.5476 9.06061 12.2218C8.67421 10.9058 8.18841 8.22195 9.20901 7.19995C11.7262 7.19995 13.248 8.83235 13.6134 9.27335C14.8678 8.84355 16.2454 8.59995 17.693 8.59995C19.1434 8.59995 20.5266 8.84355 21.7838 9.27615C22.145 8.83795 23.6682 7.19995 26.191 7.19995C27.2158 8.22335 26.7244 10.9184 26.3338 12.2316C27.5042 13.5546 28.193 15.124 28.193 16.7479C28.193 20.5238 25.5274 23.3055 19.9414 23.8838C21.4786 24.686 22.6 26.94 22.6 28.6382V32.4658C22.6 32.6114 22.5678 32.7164 22.551 32.841C29.0974 30.5464 33.8 24.3304 33.8 17C33.8 7.72215 26.2778 0.199951 17 0.199951Z" fill="#7FAFDD"/>
</svg>
