<svg width="39" height="38" viewBox="0 0 39 38" fill="none" xmlns="http://www.w3.org/2000/svg">
<path d="M19.32 0C8.66712 0 0 8.34002 0 18.5927C0 28.8453 8.66712 37.1853 19.32 37.1853C29.9729 37.1853 38.64 28.8453 38.64 18.5927C38.64 8.34002 29.9729 0 19.32 0ZM13.44 26.6764H10.08V14.5508H13.44V26.6764ZM11.76 12.1256C10.8318 12.1256 10.08 11.4022 10.08 10.5089C10.08 9.61564 10.8318 8.89214 11.76 8.89214C12.6882 8.89214 13.44 9.61564 13.44 10.5089C13.44 11.4022 12.6882 12.1256 11.76 12.1256ZM29.4 26.6764H26.04V22.6345V20.6136C26.04 19.0575 24.717 17.7843 23.1 17.7843C21.483 17.7843 20.16 19.0575 20.16 20.6136V26.6764H16.8V14.5508H20.16V16.0188C21.1411 15.1118 22.4717 14.5508 23.94 14.5508C26.9556 14.5508 29.4 16.9032 29.4 19.8052V26.6764Z" fill="#7FAFDD"/>
</svg>
