<svg width="36" height="35" viewBox="0 0 36 35" fill="none" xmlns="http://www.w3.org/2000/svg">
<path d="M18.0229 0C8.11108 0 0.042276 7.7576 0.0386756 17.2953C0.0368755 20.344 0.866728 23.3203 2.44008 25.9429L0 34.6447L9.41928 32.5031C12.0457 33.882 15.0024 34.6058 18.0123 34.6075H18.0193C27.9293 34.6075 35.9946 26.8482 36 17.3122C36.0036 12.6889 34.1352 8.34198 30.7401 5.07153C27.345 1.8028 22.8329 0.00173224 18.0229 0ZM18.0193 3.46447C21.8645 3.4662 25.4781 4.9088 28.1945 7.52101C30.911 10.1367 32.4032 13.6122 32.3996 17.3088C32.396 24.9376 25.9474 31.143 18.0158 31.143C15.6162 31.1413 13.2392 30.5615 11.1456 29.4615L9.93261 28.8255L8.59303 29.13L5.04893 29.9352L5.91386 26.8429L6.30413 25.4557L5.55874 24.2107C4.30222 22.1182 3.63723 19.7256 3.63903 17.2953C3.64263 9.66999 10.0932 3.46447 18.0193 3.46447ZM11.6589 9.31077C11.3583 9.31077 10.8722 9.41903 10.46 9.85209C10.0478 10.2834 8.88485 11.3281 8.88485 13.4553C8.88485 15.5825 10.4952 17.6387 10.7202 17.928C10.9434 18.2155 13.8285 22.7187 18.3955 24.4509C22.1903 25.8904 22.961 25.6063 23.7855 25.5336C24.61 25.4625 26.4454 24.4898 26.8198 23.4799C27.1942 22.47 27.1951 21.6013 27.0835 21.4229C26.9719 21.2427 26.6721 21.1353 26.2221 20.9188C25.7738 20.7022 23.5649 19.6585 23.1526 19.5147C22.7404 19.3709 22.4389 19.2982 22.14 19.7312C21.8412 20.1643 20.9824 21.1353 20.7196 21.4229C20.4568 21.7122 20.1957 21.7511 19.7457 21.5345C19.2956 21.3163 17.8486 20.8585 16.1313 19.3861C14.7955 18.2411 13.8942 16.8284 13.6314 16.3953C13.3704 15.964 13.6068 15.7271 13.8318 15.5123C14.0334 15.3183 14.2783 15.0074 14.5034 14.7544C14.7266 14.5015 14.804 14.3214 14.9534 14.0338C15.1028 13.7463 15.0263 13.4925 14.9147 13.276C14.8031 13.0594 13.9291 10.9243 13.5294 10.0686C13.1928 9.34974 12.8373 9.33304 12.5168 9.32091C12.2558 9.31052 11.9578 9.31077 11.6589 9.31077Z" fill="#7FAFDD"/>
</svg>
